# xmcd
#
# Track frame offsets:
#	150
#	19567
#	39475
#	54971
#	79310
#	97285
#	116313
#	141065
#	158549
#	176965
#	194191
#	203651
#
# Disc length: 2935 seconds
#
# Revision: 1
# Processed by: cddbd v1.5.1PL2 Copyright (c) Steve Scherf et al.
# Submitted via: audiograbber 1.83.01
#
DISCID=a00b750c
DTITLE=Various Artist - Smooth R&B
DYEAR=1900
DGENRE=70's and 80'S
TTITLE0=Comodores - Easy
TTITLE1=Earth, Wind and Fire - After The Love Has Gone
TTITLE2=Harold Melvin and The Blue Notes - If You Don't Know Me By Now
TTITLE3=Luther Vandross - Here And Now
TTITLE4=Quincy Jones - One Hundred Ways
TTITLE5=Regina Belle - Baby Come To Me
TTITLE6=Vanessa Williams - Dreamin'
TTITLE7=Billy Ocean - Suddenly
TTITLE8=Gregory Abbott - Shake You Down
TTITLE9=The Manhattans - Shining Star
TTITLE10=Bill Withers - Ain't No Sunshine
TTITLE11=Heatwave - Always And Forever
EXTD=
EXTT0=1977
EXTT1=1979
EXTT2=1972
EXTT3=1989
EXTT4=1982
EXTT5=1989
EXTT6=1989
EXTT7=1985
EXTT8=1986
EXTT9=1980
EXTT10=1971
EXTT11=1978
PLAYORDER=
